<svg xmlns="http://www.w3.org/2000/svg" xmlns:xlink="http://www.w3.org/1999/xlink" viewBox="0 0 153.72 292.2165"><defs><style>.a,.ao,.ap,.ar,.c,.n{fill:none;}.b{clip-path:url(#a);}.ao,.ap,.c,.n{stroke:#5895b0;}.c{stroke-width:15px;}.d{clip-path:url(#b);}.e{fill:#e6a324;}.f{font-size:27.0299px;fill:#fff;}.ab,.au,.f,.o{font-family:BebasNeueBold, Bebas Neue;}.g{letter-spacing:0.002em;}.h{letter-spacing:-0.01em;}.i{letter-spacing:-0.006em;}.j{letter-spacing:0.007em;}.k{letter-spacing:0.001em;}.l{letter-spacing:0em;}.m{letter-spacing:-0.004em;}.n{stroke-linecap:round;}.ao,.n{stroke-width:2.796px;}.o{font-size:19px;fill:#2e4a79;}.p{letter-spacing:-0.021em;}.q{letter-spacing:-0.027em;}.r{letter-spacing:0.005em;}.s{letter-spacing:-0.005em;}.t{letter-spacing:-0.0041em;}.u{letter-spacing:-0.008em;}.v{letter-spacing:0.0111em;}.w{letter-spacing:-0.004em;}.x{letter-spacing:-0.0309em;}.y{letter-spacing:-0.04em;}.z{letter-spacing:-0.035em;}.aa{letter-spacing:-0.0001em;}.ab{font-size:21.4375px;}.ab,.an,.au{fill:#656666;}.ac{letter-spacing:-0.001em;}.ad{letter-spacing:0.008em;}.ae{letter-spacing:0.012em;}.af{letter-spacing:-0.027em;}.ag{letter-spacing:-0.024em;}.ah{letter-spacing:-0.001em;}.ai{letter-spacing:-0.007em;}.aj{letter-spacing:0.004em;}.ak{letter-spacing:0.003em;}.al{letter-spacing:0.012em;}.am{letter-spacing:0.006em;}.ap{stroke-width:6px;}.aq{fill:#5895b0;}.ar{stroke:#fff;stroke-width:2px;}.as{opacity:0.3;}.at{clip-path:url(#f);}.au{font-size:16px;}.av{letter-spacing:0.012em;}.aw{letter-spacing:0.003em;}.ax{letter-spacing:0.006em;}.ay{letter-spacing:0.015em;}.az{letter-spacing:0.004em;}.ba{letter-spacing:0.01em;}.bb{letter-spacing:-0.003em;}.bc{letter-spacing:0.0099em;}.bd{letter-spacing:0.0029em;}.be{letter-spacing:0.009em;}.bf{letter-spacing:-0.002em;}</style><clipPath id="a"><rect class="a" x="-976.76" y="-160.0735" width="1190.55" height="841.89"/></clipPath><clipPath id="b"><rect class="a" x="-976.76" y="-160.0735" width="1190.551" height="841.89"/></clipPath><clipPath id="f"><rect class="a" x="4.38" y="242.3995" width="141.92" height="39.315"/></clipPath></defs><g class="b"><rect class="c" x="-942.587" y="-123.5185" width="1122.2049" height="768.78"/><g class="d"><path class="e" d="M21.4374,11.9965s-16,0-16,16v2.945s0,16,16,16H129.36s16,0,16-16v-2.945s0-16-16-16Z"/></g><text class="f" transform="translate(18.6599 38.7765)"><tspan class="g">T</tspan><tspan class="h" x="9.6768" y="0">H</tspan><tspan x="20.9473" y="0">E </tspan><tspan class="i" x="35.084" y="0">D</tspan><tspan class="j" x="45.9492" y="0">E</tspan><tspan class="k" x="56.0859" y="0">A</tspan><tspan class="l" x="67.1143" y="0">D </tspan><tspan class="m" x="82.3311" y="0">S</tspan><tspan class="j" x="92.332" y="0">E</tspan><tspan x="102.4688" y="0">A</tspan></text><line class="n" x1="143.7428" y1="82.8637" x2="143.7428" y2="94.4817"/><text class="o" transform="translate(13.1668 87.0738)"><tspan class="p">W</tspan><tspan class="q" x="10.2979" y="0">A</tspan><tspan class="r" x="17.5176" y="0">T</tspan><tspan class="s" x="24.377" y="0">E</tspan><tspan x="31.2734" y="0">R B</tspan><tspan class="t" x="49.5703" y="0">O</tspan><tspan class="u" x="57.0176" y="0">I</tspan><tspan class="v" x="60.4756" y="0">L</tspan><tspan class="w" x="67.126" y="0">S</tspan><tspan x="74.1553" y="0">: </tspan><tspan class="x" x="80.6338" y="0">1</tspan><tspan class="y" x="87.5693" y="0">0</tspan><tspan class="z" x="94.333" y="0">1</tspan><tspan class="aa" x="101.1924" y="0">.4 </tspan></text><text class="o" transform="translate(126.5808 88.9381)">˚</text><text class="o" transform="translate(129.8582 87.0738)">C</text><text class="ab" transform="translate(13.9539 67.7096)"><tspan class="ac">E</tspan><tspan class="ad" x="7.8672" y="0">L</tspan><tspan class="ae" x="15.3057" y="0">E</tspan><tspan class="af" x="23.4521" y="0">V</tspan><tspan class="ag" x="31.4912" y="0">A</tspan><tspan class="ad" x="39.7012" y="0">T</tspan><tspan class="ah" x="47.5049" y="0">I</tspan><tspan x="51.5557" y="0">O</tspan><tspan class="ai" x="60.0449" y="0">N</tspan><tspan class="aj" x="69.0488" y="0">:</tspan><tspan class="ak" x="73.1211" y="0"> </tspan><tspan class="al" x="76.5088" y="0">–</tspan><tspan class="am" x="87.4844" y="0">4</tspan><tspan x="96.1025" y="0">27</tspan></text><path class="an" d="M128.6332,57.4147h.8018l.1025,1.5971h.0479a4.771,4.771,0,0,1,3.2539-1.8545,2.6628,2.6628,0,0,1,2.8428,2.1011c1.1689-1.2861,2.3066-2.1011,3.4951-2.1011,2.0488,0,3.0781,1.291,3.0781,3.9493V67.71h-.9473v-6.479c0-2.1822-.7294-3.22-2.3066-3.22-.97,0-1.9473.6431-3.083,1.9336V67.71H134.97v-6.479c0-2.1822-.7286-3.22-2.3067-3.22-.9306,0-1.9463.6431-3.083,1.9336V67.71h-.9473Z"/><line class="n" x1="6.5053" y1="82.8637" x2="6.5053" y2="94.4817"/><line class="ao" x1="145.1409" y1="94.4814" x2="5.1069" y2="94.4814"/><line class="ao" x1="75.124" y1="94.4815" x2="75.124" y2="125.2685"/><g class="d"><circle class="ap" cx="75.124" cy="176.532" r="52.003" transform="translate(-61.8374 42.1864) rotate(-22.5)"/></g><polygon class="aq" points="23.888 164.114 32.888 164.114 37.849 167.374 42.242 168.508 46.353 167.516 49.471 165.39 53.297 164.114 57.408 164.114 60.809 165.39 65.061 168.508 70.447 168.508 74.026 166.311 77.25 164.114 81.219 164.114 84.762 164.681 87.455 166.311 92.274 168.508 95.817 168.508 98.227 166.311 101.486 164.681 105.171 164.114 108.857 164.681 111.266 166.311 114.384 167.799 119.486 168.508 123.171 166.311 126.289 167.799 127.423 182.256 124.164 195.579 116.368 209.468 109.849 215.846 102.904 221.374 96.101 224.634 84.337 227.185 74.132 228.886 64.352 228.886 53.297 223.5 44.085 217.547 35.864 211.027 28.919 200.681 24.384 186.224 22.825 176.161 23.888 164.114"/><g class="d"><circle class="ar" cx="75.3418" cy="176.8614" r="48.466" transform="matrix(0.982, -0.1891, 0.1891, 0.982, -32.0864, 17.4389)"/></g><g class="d"><g class="as"><g class="at"><path class="e" d="M16.7191,243.3993s-11.339,0-11.339,11.339v14.637s0,11.339,11.339,11.339h117.245s11.339,0,11.339-11.339v-14.637s0-11.339-11.339-11.339Z"/></g></g></g><text class="au" transform="translate(34.1433 261.1983)"><tspan class="av">L</tspan><tspan class="aw" x="5.6162" y="0">O</tspan><tspan class="ax" x="12" y="0">WE</tspan><tspan class="ay" x="27.0879" y="0">S</tspan><tspan class="az" x="33.3115" y="0">T </tspan><tspan class="ba" x="41.6152" y="0">P</tspan><tspan x="47.8867" y="0">O</tspan><tspan class="bb" x="54.2227" y="0">I</tspan><tspan class="bc" x="57.2148" y="0">N</tspan><tspan class="az" x="64.2061" y="0">T</tspan><tspan class="bd" x="69.9668" y="0"> </tspan><tspan class="bb" x="72.4941" y="0">I</tspan><tspan x="75.4863" y="0">N </tspan></text><text class="au" transform="translate(47.7634 275.1983)"><tspan class="be">T</tspan><tspan class="bf" x="5.8398" y="0">H</tspan><tspan class="az" x="12.6396" y="0">E</tspan><tspan class="aw" x="18.5918" y="0"> </tspan><tspan class="az" x="21.1191" y="0">W</tspan><tspan x="30.1914" y="0">O</tspan><tspan class="aw" x="36.5273" y="0">R</tspan><tspan class="be" x="43.0068" y="0">L</tspan><tspan x="48.5752" y="0">D</tspan></text></g></svg>