<svg xmlns="http://www.w3.org/2000/svg" xmlns:xlink="http://www.w3.org/1999/xlink" viewBox="0 0 153.36 292.2165"><defs><style>.a,.aj,.ak,.al,.an,.c,.l{fill:none;}.b{clip-path:url(#a);}.aj,.ak,.al,.c,.l{stroke:#5895b0;}.c{stroke-width:15px;}.d{clip-path:url(#b);}.e{fill:#e6a324;}.f{font-size:27.0299px;fill:#fff;}.aq,.f,.m,.z{font-family:BebasNeueBold, Bebas Neue;}.g{letter-spacing:-0.004em;}.h{letter-spacing:0.007em;}.i{letter-spacing:0.002em;}.j{letter-spacing:0.001em;}.k{letter-spacing:-0.007em;}.l{stroke-linecap:round;}.aj,.l{stroke-width:2.796px;}.m{font-size:19px;fill:#2e4a79;}.n{letter-spacing:-0.021em;}.o{letter-spacing:-0.027em;}.p{letter-spacing:0.005em;}.q{letter-spacing:-0.005em;}.r{letter-spacing:-0.0041em;}.s{letter-spacing:-0.008em;}.t{letter-spacing:0.0111em;}.u{letter-spacing:-0.004em;}.v{letter-spacing:-0.0309em;}.w{letter-spacing:-0.002em;}.x{letter-spacing:-0.009em;}.y{letter-spacing:-0.0001em;}.z{font-size:21.4375px;}.ai,.aq,.z{fill:#656666;}.aa{letter-spacing:-0.001em;}.ab{letter-spacing:0.008em;}.ac{letter-spacing:0.012em;}.ad{letter-spacing:-0.027em;}.ae{letter-spacing:-0.024em;}.af{letter-spacing:-0.001em;}.ag{letter-spacing:-0.007em;}.ah{letter-spacing:0.004em;}.ak{stroke-width:6px;}.al{stroke-width:1.59px;}.am{fill:#5895b0;}.an{stroke:#fff;stroke-width:2px;}.ao{opacity:0.3;}.ap{clip-path:url(#g);}.aq{font-size:16px;}.ar{letter-spacing:0.004em;}.as{letter-spacing:0.002em;}.at{letter-spacing:0.007em;}.au{letter-spacing:0.0029em;}.av{letter-spacing:0.0031em;}.aw{letter-spacing:0.024em;}.ax{letter-spacing:-0.022em;}.ay{letter-spacing:0.009em;}.az{letter-spacing:0.008em;}.ba{letter-spacing:0.009em;}.bb{letter-spacing:0.014em;}.bc{letter-spacing:-0.025em;}.bd{letter-spacing:-0.0001em;}.be{letter-spacing:0.004em;}.bf{letter-spacing:0.003em;}</style><clipPath id="a"><rect class="a" x="-670.76" y="-160.0735" width="1190.55" height="841.89"/></clipPath><clipPath id="b"><rect class="a" x="-670.76" y="-160.0735" width="1190.551" height="841.89"/></clipPath><clipPath id="g"><rect class="a" x="3.968" y="242.3995" width="141.922" height="39.315"/></clipPath></defs><g class="b"><rect class="c" x="-636.587" y="-123.5185" width="1122.2049" height="768.78"/><g class="d"><path class="e" d="M22.5585,11.9965s-16,0-16,16v2.945s0,16,16,16h107.923s16,0,16-16v-2.945s0-16-16-16Z"/></g><text class="f" transform="translate(34.2576 38.7765)"><tspan class="g">S</tspan><tspan class="h" x="10.001" y="0">E</tspan><tspan x="20.1367" y="0">A </tspan><tspan class="i" x="35.3281" y="0">L</tspan><tspan class="h" x="44.5449" y="0">E</tspan><tspan class="j" x="54.6807" y="0">V</tspan><tspan class="k" x="65.5732" y="0">E</tspan><tspan x="75.3311" y="0">L</tspan></text><line class="l" x1="144.8639" y1="82.8637" x2="144.8639" y2="94.4817"/><text class="m" transform="translate(13.7556 87.0738)"><tspan class="n">W</tspan><tspan class="o" x="10.2979" y="0">A</tspan><tspan class="p" x="17.5176" y="0">T</tspan><tspan class="q" x="24.377" y="0">E</tspan><tspan x="31.2734" y="0">R B</tspan><tspan class="r" x="49.5703" y="0">O</tspan><tspan class="s" x="57.0176" y="0">I</tspan><tspan class="t" x="60.4756" y="0">L</tspan><tspan class="u" x="67.126" y="0">S</tspan><tspan x="74.1553" y="0">: </tspan><tspan class="v" x="80.6338" y="0">1</tspan><tspan class="w" x="87.5693" y="0">0</tspan><tspan class="s" x="95.0547" y="0">0</tspan><tspan class="x" x="102.4268" y="0">.</tspan><tspan class="y" x="105.79" y="0">0 </tspan></text><text class="m" transform="translate(128.2341 88.9381)">˚</text><text class="m" transform="translate(131.5115 87.0738)">C</text><text class="z" transform="translate(28.9421 67.7096)"><tspan class="aa">E</tspan><tspan class="ab" x="7.8672" y="0">L</tspan><tspan class="ac" x="15.3057" y="0">E</tspan><tspan class="ad" x="23.4521" y="0">V</tspan><tspan class="ae" x="31.4912" y="0">A</tspan><tspan class="ab" x="39.7012" y="0">T</tspan><tspan class="af" x="47.5049" y="0">I</tspan><tspan x="51.5557" y="0">O</tspan><tspan class="ag" x="60.0449" y="0">N</tspan><tspan class="ah" x="69.0488" y="0">: </tspan><tspan x="76.5303" y="0">0</tspan></text><path class="ai" d="M115.8862,57.4147h.8017l.1026,1.5971h.0478a4.771,4.771,0,0,1,3.2539-1.8545,2.6628,2.6628,0,0,1,2.8428,2.1011c1.1689-1.2861,2.3066-2.1011,3.4951-2.1011,2.0488,0,3.0781,1.291,3.0781,3.9493V67.71h-.9472v-6.479c0-2.1822-.73-3.22-2.3067-3.22-.97,0-1.9472.6431-3.083,1.9336V67.71h-.9482v-6.479c0-2.1822-.7285-3.22-2.3067-3.22-.9306,0-1.9462.6431-3.083,1.9336V67.71h-.9472Z"/><line class="l" x1="7.6264" y1="82.8637" x2="7.6264" y2="94.4817"/><line class="aj" x1="146.262" y1="94.4814" x2="6.228" y2="94.4814"/><line class="aj" x1="76.2451" y1="94.4815" x2="76.2451" y2="125.2685"/><g class="d"><circle class="ak" cx="76.2451" cy="176.532" r="52.003" transform="translate(-102.4953 105.6185) rotate(-45)"/></g><g class="d"><path class="al" d="M24.7912,165.911c3.134-2.933,9.4009-2.933,12.534,0s9.401,2.933,12.535,0,9.401-2.933,12.534,0,9.401,2.933,12.535,0,9.401-2.933,12.534,0,9.401,2.933,12.535,0,9.4-2.933,12.534,0,9.401,2.933,12.535,0"/></g><polygon class="am" points="24.791 163.785 33.791 163.785 38.752 167.045 43.145 168.179 47.256 167.187 50.374 165.061 54.2 163.785 58.311 163.785 61.712 165.061 65.964 168.179 71.35 168.179 74.929 165.982 78.153 163.785 82.122 163.785 85.665 164.352 88.358 165.982 93.177 168.179 96.72 168.179 99.13 165.982 102.389 164.352 106.074 163.785 109.76 164.352 112.169 165.982 115.287 167.47 120.389 168.179 124.074 165.982 127.193 167.47 128.326 181.927 125.067 195.25 117.271 209.139 110.752 215.517 103.807 221.045 97.004 224.305 85.24 226.856 75.035 228.557 65.256 228.557 54.2 223.171 44.988 217.218 36.767 210.698 29.822 200.352 25.287 185.895 23.728 175.832 24.791 163.785"/><g class="d"><circle class="an" cx="76.2451" cy="176.5324" r="48.466" transform="translate(-61.7522 42.6155) rotate(-22.5)"/></g><g class="d"><g class="ao"><g class="ap"><path class="e" d="M16.3062,243.3993s-11.339,0-11.339,11.339v14.637s0,11.339,11.339,11.339h117.245s11.339,0,11.339-11.339v-14.637s0-11.339-11.339-11.339Z"/></g></g></g><text class="aq" transform="translate(30.6648 261.1983)"><tspan class="ar">U</tspan><tspan class="as" x="6.4316" y="0">S</tspan><tspan x="12.4482" y="0">E</tspan><tspan class="ar" x="18.3359" y="0">D </tspan><tspan class="at" x="27.4717" y="0">A</tspan><tspan class="au" x="34.0957" y="0">S</tspan><tspan class="ar" x="40.127" y="0"> </tspan><tspan class="av" x="42.6709" y="0">R</tspan><tspan x="49.1514" y="0">E</tspan><tspan class="aw" x="55.0391" y="0">L</tspan><tspan class="ax" x="60.8467" y="0">A</tspan><tspan class="ay" x="67.0068" y="0">T</tspan><tspan class="at" x="72.8467" y="0">I</tspan><tspan class="az" x="75.999" y="0">V</tspan><tspan x="82.5586" y="0">E </tspan></text><text class="aq" transform="translate(20.115 275.1983)">E<tspan class="ba" x="5.8877" y="0">L</tspan><tspan class="bb" x="11.4561" y="0">E</tspan><tspan class="bc" x="17.5674" y="0">V</tspan><tspan class="ax" x="23.5996" y="0">A</tspan><tspan class="ba" x="29.7598" y="0">T</tspan><tspan class="bd" x="35.5996" y="0">IO</tspan><tspan class="be" x="44.9746" y="0">N </tspan><tspan class="bf" x="54.415" y="0">R</tspan><tspan x="60.8945" y="0">E</tspan><tspan class="at" x="66.7822" y="0">F</tspan><tspan x="72.3984" y="0">E</tspan><tspan class="av" x="78.2861" y="0">R</tspan><tspan x="84.7666" y="0">ENCE</tspan></text></g></svg>