<svg xmlns="http://www.w3.org/2000/svg" xmlns:xlink="http://www.w3.org/1999/xlink" viewBox="0 0 152.64 292.2165"><defs><style>.a,.ai,.ak,.al,.am,.e,.j{fill:none;}.b{clip-path:url(#a);}.c{clip-path:url(#b);}.d{fill:#5895b0;}.ai,.al,.e,.j{stroke:#5895b0;}.e{stroke-width:15px;}.f{fill:#e6a324;}.g{font-size:27.0299px;fill:#fff;}.ap,.g,.k,.w{font-family:BebasNeueBold, Bebas Neue;}.h{letter-spacing:0.001em;}.i{letter-spacing:0.004em;}.j{stroke-linecap:round;}.ai,.j{stroke-width:2.796px;}.k{font-size:19px;fill:#2e4a79;}.l{letter-spacing:-0.021em;}.m{letter-spacing:-0.027em;}.n{letter-spacing:0.005em;}.o{letter-spacing:-0.005em;}.p{letter-spacing:-0.0041em;}.q{letter-spacing:-0.008em;}.r{letter-spacing:0.0111em;}.s{letter-spacing:-0.004em;}.t{letter-spacing:-0.0309em;}.u{letter-spacing:-0.002em;}.v{letter-spacing:-0.085em;}.w{font-size:21.4375px;}.ah,.ap,.w{fill:#656666;}.x{letter-spacing:-0.001em;}.y{letter-spacing:0.008em;}.z{letter-spacing:0.012em;}.aa{letter-spacing:-0.027em;}.ab{letter-spacing:-0.024em;}.ac{letter-spacing:-0.001em;}.ad{letter-spacing:-0.007em;}.ae{letter-spacing:0.004em;}.af{letter-spacing:0.006em;}.ag{letter-spacing:0.005em;}.aj{clip-path:url(#d);}.ak,.am{stroke:#fff;}.ak{stroke-width:1.5px;}.al{stroke-width:6px;}.am{stroke-width:2px;}.an{opacity:0.3;}.ao{clip-path:url(#h);}.ap{font-size:16px;}.aq{letter-spacing:0.004em;}.ar{letter-spacing:0.004em;}.as{letter-spacing:0.009em;}.at{letter-spacing:-0.003em;}.au{letter-spacing:-0.002em;}.av{letter-spacing:0.003em;}.aw{letter-spacing:0.012em;}.ax{letter-spacing:0.006em;}.ay{letter-spacing:0.0151em;}.az{letter-spacing:0.005em;}.ba{letter-spacing:0.007em;}.bb{letter-spacing:0.0049em;}.bc{letter-spacing:0.009em;}.bd{letter-spacing:-0.022em;}.be{letter-spacing:0.008em;}.bf{letter-spacing:0.028em;}</style><clipPath id="a"><rect class="a" x="-824.12" y="-160.0735" width="1190.55" height="841.89"/></clipPath><clipPath id="b"><rect class="a" x="-824.12" y="-160.0735" width="1190.551" height="841.89"/></clipPath><clipPath id="d"><path class="a" d="M23.322,176.5325A52.003,52.003,0,1,0,75.325,124.53a52.003,52.003,0,0,0-52.003,52.003"/></clipPath><clipPath id="h"><rect class="a" x="4.308" y="242.3995" width="141.922" height="39.315"/></clipPath></defs><g class="b"><g class="c"><path class="d" d="M82.2752,169.3573c3.01,0,5.451-2.009,5.451-4.487s-2.441-4.487-5.451-4.487-5.451,2.009-5.451,4.487,2.441,4.487,5.451,4.487"/></g><polygon class="d" points="80.285 163.785 78.159 226.835 86.391 226.835 84.265 163.785 80.285 163.785"/><polygon class="d" points="82.411 129.911 81.013 167.705 83.809 167.705 82.411 129.911"/><rect class="e" x="-789.947" y="-123.5185" width="1122.2049" height="768.78"/><g class="c"><path class="f" d="M21.638,11.9965s-16,0-16,16v2.945s0,16,16,16H129.561s16,0,16-16v-2.945s0-16-16-16Z"/></g><text class="g" transform="translate(53.5753 38.7765)">B<tspan class="h" x="10.9736" y="0">A</tspan><tspan class="i" x="22.002" y="0">K</tspan><tspan x="33.2998" y="0">U</tspan></text><line class="j" x1="143.9433" y1="82.8637" x2="143.9433" y2="94.4817"/><text class="k" transform="translate(13.5646 87.0738)"><tspan class="l">W</tspan><tspan class="m" x="10.2979" y="0">A</tspan><tspan class="n" x="17.5176" y="0">T</tspan><tspan class="o" x="24.377" y="0">E</tspan><tspan x="31.2734" y="0">R B</tspan><tspan class="p" x="49.5703" y="0">O</tspan><tspan class="q" x="57.0176" y="0">I</tspan><tspan class="r" x="60.4756" y="0">L</tspan><tspan class="s" x="67.126" y="0">S</tspan><tspan x="74.1553" y="0">: </tspan><tspan class="t" x="80.6338" y="0">1</tspan><tspan class="u" x="87.5693" y="0">0</tspan><tspan class="q" x="95.0547" y="0">0</tspan><tspan class="v" x="102.4268" y="0">.</tspan><tspan x="104.3457" y="0">1 </tspan></text><text class="k" transform="translate(126.5841 88.9381)">˚</text><text class="k" transform="translate(129.8614 87.0738)">C</text><text class="w" transform="translate(18.2921 67.7096)"><tspan class="x">E</tspan><tspan class="y" x="7.8672" y="0">L</tspan><tspan class="z" x="15.3057" y="0">E</tspan><tspan class="aa" x="23.4521" y="0">V</tspan><tspan class="ab" x="31.4912" y="0">A</tspan><tspan class="y" x="39.7012" y="0">T</tspan><tspan class="ac" x="47.5049" y="0">I</tspan><tspan x="51.5557" y="0">O</tspan><tspan class="ad" x="60.0449" y="0">N</tspan><tspan class="ae" x="69.0488" y="0">: </tspan><tspan class="af" x="76.5303" y="0">–</tspan><tspan class="ag" x="87.377" y="0">2</tspan><tspan x="95.9736" y="0">8</tspan></text><path class="ah" d="M124.6961,57.4147h.8018l.1025,1.5971h.0478a4.771,4.771,0,0,1,3.2539-1.8545,2.6628,2.6628,0,0,1,2.8428,2.1011c1.169-1.2861,2.3067-2.1011,3.4951-2.1011,2.0489,0,3.0782,1.291,3.0782,3.9493V67.71h-.9473v-6.479c0-2.1822-.73-3.22-2.3066-3.22-.97,0-1.9473.6431-3.083,1.9336V67.71h-.9483v-6.479c0-2.1822-.7285-3.22-2.3066-3.22-.9307,0-1.9463.6431-3.083,1.9336V67.71h-.9473Z"/><line class="j" x1="6.7058" y1="82.8637" x2="6.7058" y2="94.4817"/><line class="ai" x1="145.3414" y1="94.4814" x2="5.3074" y2="94.4814"/><line class="ai" x1="75.3246" y1="94.4815" x2="75.3246" y2="125.2685"/><g class="aj"><path class="d" d="M33.5641,222.7727s-2.976-33.165,1.2759-49.748,2.1151-15.46,2.1261-17.433c0,0,10.2069,7.228,11.481,12.3311s2.125,17.8579,1.7,22.96,9.7381,30.546,9.7791,31.89Z"/><path class="ak" d="M33.5641,222.7727s-2.976-33.165,1.2759-49.748,2.1151-15.46,2.1261-17.433c0,0,10.2069,7.228,11.481,12.3311s2.125,17.8579,1.7,22.96,9.7381,30.546,9.7791,31.89Z"/><path class="d" d="M50.4614,228.8819s.85-31.716,5.527-42.699,3.826-15.021,5.953-15.447,7.229-1.275,8.504,0,.851,14.457,2.977,20.41,4.252,26.362,2.126,39.118-25.087-1.382-25.087-1.382"/><path class="ak" d="M50.4614,228.8819s.85-31.716,5.527-42.699,3.826-15.021,5.953-15.447,7.229-1.275,8.504,0,.851,14.457,2.977,20.41,4.252,26.362,2.126,39.118S50.4614,228.8819,50.4614,228.8819Z"/><path class="d" d="M79.8565,226.9217s13.606-32.74,13.606-49.535,18.284-27,18.284-27,2.551,21.12,5.527,27,3.402,41.456,0,50.811-37.417-1.276-37.417-1.276"/><path class="ak" d="M79.8565,226.9217s13.606-32.74,13.606-49.535,18.284-27,18.284-27,2.551,21.12,5.527,27,3.402,41.456,0,50.811S79.8565,226.9217,79.8565,226.9217Z"/></g><g class="c"><circle class="al" cx="75.3246" cy="176.532" r="52.003" transform="translate(-102.7649 104.9675) rotate(-45)"/></g><g class="c"><circle class="am" cx="75.3246" cy="176.8614" r="48.466" transform="matrix(0.982, -0.1891, 0.1891, 0.982, -32.0867, 17.4357)"/></g><g class="c"><g class="an"><g class="ao"><path class="f" d="M16.6463,243.3993s-11.3391,0-11.3391,11.339v14.637s0,11.339,11.3391,11.339h117.245s11.339,0,11.339-11.339v-14.637s0-11.339-11.339-11.339Z"/></g></g></g><text class="ap" transform="translate(32.9874 261.1983)"><tspan class="aq">W</tspan><tspan x="9.0723" y="0">O</tspan><tspan class="ar" x="15.4082" y="0">R</tspan><tspan class="as" x="21.9033" y="0">L</tspan><tspan class="at" x="27.4717" y="0">D</tspan><tspan class="au" x="33.9512" y="0">’</tspan><tspan class="av" x="36.8955" y="0">S</tspan><tspan class="ar" x="42.9268" y="0"> </tspan><tspan class="aw" x="45.4707" y="0">L</tspan><tspan class="ar" x="51.0869" y="0">O</tspan><tspan class="ax" x="57.4863" y="0">WE</tspan><tspan class="ay" x="72.5742" y="0">S</tspan><tspan x="78.7988" y="0">T </tspan></text><text class="ap" transform="translate(43.1876 275.1983)"><tspan class="az">C</tspan><tspan class="ba" x="6.2559" y="0">A</tspan><tspan class="bb" x="12.8799" y="0">P</tspan><tspan class="bc" x="19.0713" y="0">I</tspan><tspan class="bd" x="22.2549" y="0">T</tspan><tspan class="be" x="27.5996" y="0">A</tspan><tspan class="ar" x="34.2393" y="0">L </tspan><tspan x="42.2705" y="0">C</tspan><tspan class="as" x="48.4463" y="0">I</tspan><tspan class="bf" x="51.6309" y="0">T</tspan><tspan x="57.7744" y="0">Y</tspan></text></g></svg>