<svg xmlns="http://www.w3.org/2000/svg" xmlns:xlink="http://www.w3.org/1999/xlink" viewBox="0 0 151.5317 293.04"><defs><style>.a,.am,.an,.aq,.c,.m{fill:none;}.b{clip-path:url(#a);}.am,.an,.c,.m{stroke:#5895b0;}.c{stroke-width:15px;}.d{clip-path:url(#b);}.e{fill:#e6a324;}.f{font-size:27.0299px;}.ap,.f{fill:#fff;}.aa,.at,.f,.n{font-family:BebasNeueBold, Bebas Neue;}.g{letter-spacing:0.007em;}.h{letter-spacing:0.001em;}.i{letter-spacing:-0.007em;}.j{letter-spacing:-0.003em;}.k{letter-spacing:0.008em;}.l{letter-spacing:0em;}.m{stroke-linecap:round;}.am,.m{stroke-width:2.796px;}.n{font-size:19px;fill:#2e4a79;}.o{letter-spacing:-0.021em;}.p{letter-spacing:-0.027em;}.q{letter-spacing:0.005em;}.r{letter-spacing:-0.005em;}.s{letter-spacing:-0.004em;}.t{letter-spacing:-0.008em;}.u{letter-spacing:0.011em;}.v{letter-spacing:0em;}.w{letter-spacing:-0.001em;}.x{letter-spacing:-0.01em;}.y{letter-spacing:-0.009em;}.z{letter-spacing:0.005em;}.aa{font-size:21.4375px;}.aa,.al,.at{fill:#656666;}.ab{letter-spacing:-0.001em;}.ac{letter-spacing:0.008em;}.ad{letter-spacing:0.012em;}.ae{letter-spacing:-0.027em;}.af{letter-spacing:-0.024em;}.ag{letter-spacing:0em;}.ah{letter-spacing:-0.007em;}.ai{letter-spacing:0.004em;}.aj{letter-spacing:0.006em;}.ak{letter-spacing:0.014em;}.an{stroke-width:6px;}.ao{fill:#5895b0;}.aq{stroke:#fff;stroke-width:2px;}.ar{opacity:0.3;}.as{clip-path:url(#f);}.at{font-size:16px;}.au{letter-spacing:0.004em;}.av{letter-spacing:0.003em;}.aw{letter-spacing:0.009em;}.ax{letter-spacing:-0.003em;}.ay{letter-spacing:-0.002em;}.az{letter-spacing:0.006em;}.ba{letter-spacing:0.015em;}.bb{letter-spacing:0.001em;}.bc{letter-spacing:0.01em;}.bd{letter-spacing:-0.022em;}.be{letter-spacing:0.008em;}</style><clipPath id="a"><rect class="a" x="-61.6683" y="-159.25" width="1190.55" height="841.89"/></clipPath><clipPath id="b"><rect class="a" x="-61.6683" y="-159.25" width="1190.551" height="841.89"/></clipPath><clipPath id="f"><rect class="a" x="5.553" y="243.223" width="141.9227" height="39.315"/></clipPath></defs><g class="b"><rect class="c" x="-27.4953" y="-122.695" width="1122.2049" height="768.78"/><g class="d"><path class="e" d="M22.0036,12.82s-16,0-16,16v2.945s0,16,16,16h107.923s16,0,16-16V28.82s0-16-16-16Z"/></g><text class="f" transform="translate(40.2321 39.6)"><tspan class="g">E</tspan><tspan class="h" x="10.1362" y="0">V</tspan><tspan class="i" x="21.0288" y="0">E</tspan><tspan class="j" x="30.7866" y="0">R</tspan><tspan x="41.5713" y="0">E</tspan><tspan class="k" x="51.5181" y="0">S</tspan><tspan class="l" x="61.8433" y="0">T</tspan></text><line class="m" x1="144.5281" y1="83.6872" x2="144.5281" y2="95.3052"/><text class="n" transform="translate(13.0743 87.8973)"><tspan class="o">W</tspan><tspan class="p" x="10.2979" y="0">A</tspan><tspan class="q" x="17.5176" y="0">T</tspan><tspan class="r" x="24.3765" y="0">E</tspan><tspan x="31.2734" y="0">R B</tspan><tspan class="s" x="49.5703" y="0">O</tspan><tspan class="t" x="57.0181" y="0">I</tspan><tspan class="u" x="60.4756" y="0">L</tspan><tspan class="s" x="67.1255" y="0">S</tspan><tspan class="v" x="74.1553" y="0">: </tspan><tspan class="w" x="80.6343" y="0">6</tspan><tspan class="x" x="88.1392" y="0">9</tspan><tspan class="y" x="95.4731" y="0">.</tspan><tspan class="z" x="98.8359" y="0">9</tspan><tspan x="106.4546" y="0">4 </tspan></text><text class="n" transform="translate(128.2443 89.7616)">˚</text><text class="n" transform="translate(131.5216 87.8973)">C</text><text class="aa" transform="translate(15.5201 68.5331)"><tspan class="ab">E</tspan><tspan class="ac" x="7.8677" y="0">L</tspan><tspan class="ad" x="15.3062" y="0">E</tspan><tspan class="ae" x="23.4521" y="0">V</tspan><tspan class="af" x="31.4912" y="0">A</tspan><tspan class="ac" x="39.7017" y="0">T</tspan><tspan class="ab" x="47.5044" y="0">I</tspan><tspan class="ag" x="51.5562" y="0">O</tspan><tspan class="ah" x="60.0449" y="0">N</tspan><tspan class="ai" x="69.0488" y="0">: </tspan><tspan class="aj" x="76.5303" y="0">8</tspan><tspan class="ad" x="85.1479" y="0">8</tspan><tspan class="ak" x="93.894" y="0">4</tspan><tspan x="102.6836" y="0">8</tspan></text><path class="al" d="M128.6375,58.2381h.8018l.103,1.5972h.0469a4.7715,4.7715,0,0,1,3.2544-1.8545,2.663,2.663,0,0,1,2.8427,2.1011c1.1685-1.2861,2.3072-2.1011,3.4947-2.1011,2.05,0,3.0786,1.291,3.0786,3.9492v6.6031h-.9473v-6.479c0-2.1822-.729-3.22-2.3071-3.22-.9688,0-1.9468.6431-3.083,1.9336v7.7652h-.9473v-6.479c0-2.1822-.729-3.22-2.3071-3.22-.93,0-1.9463.6431-3.0825,1.9336v7.7652h-.9478Z"/><line class="m" x1="7.2906" y1="83.6872" x2="7.2906" y2="95.3052"/><line class="am" x1="145.9262" y1="95.3049" x2="5.8922" y2="95.3049"/><line class="am" x1="75.9093" y1="95.305" x2="75.9093" y2="126.092"/><g class="d"><circle class="an" cx="75.9649" cy="177.3555" r="52.003"/></g><polygon class="ao" points="25.639 185.71 75.91 142.64 125.985 185.71 117.482 209.854 97.072 223.788 68.726 229.097 46.048 218.646 33.576 205.978 25.639 185.71"/><polygon class="ap" points="75.965 146.538 46.757 170.987 65.182 165.318 70.568 176.089 82.048 165.318 102.174 169.144 75.965 146.538"/><g class="d"><circle class="aq" cx="75.812" cy="177.3559" r="48.466" transform="translate(-108.1511 235.3227) rotate(-84.345)"/></g><g class="d"><g class="ar"><g class="as"><path class="e" d="M17.8916,244.2228s-11.339,0-11.339,11.339v14.637s0,11.339,11.339,11.339h117.245s11.339,0,11.339-11.339v-14.637s0-11.339-11.339-11.339Z"/></g></g></g><text class="at" transform="translate(33.3825 262.0218)"><tspan class="au">W</tspan><tspan x="9.0718" y="0">O</tspan><tspan class="av" x="15.4077" y="0">R</tspan><tspan class="aw" x="21.8877" y="0">L</tspan><tspan class="ax" x="27.4556" y="0">D</tspan><tspan class="ay" x="33.9351" y="0">’</tspan><tspan class="av" x="36.8789" y="0">S</tspan><tspan class="au" x="42.9111" y="0"> </tspan><tspan class="ax" x="45.4551" y="0">H</tspan><tspan x="52.2388" y="0">IG</tspan><tspan class="ay" x="61.5186" y="0">H</tspan><tspan class="az" x="68.3184" y="0">E</tspan><tspan class="ba" x="74.3022" y="0">S</tspan><tspan x="80.5264" y="0">T </tspan></text><text class="at" transform="translate(51.4215 276.0218)">M<tspan class="bb" x="8.6558" y="0">O</tspan><tspan x="15.0078" y="0">U</tspan><tspan class="bc" x="21.3755" y="0">N</tspan><tspan class="bd" x="28.3672" y="0">T</tspan><tspan class="be" x="33.7114" y="0">A</tspan><tspan class="ax" x="40.3511" y="0">I</tspan><tspan x="43.3428" y="0">N</tspan></text></g></svg>