<svg xmlns="http://www.w3.org/2000/svg" xmlns:xlink="http://www.w3.org/1999/xlink" viewBox="0 0 151.56 293.04"><defs><style>.a,.ak,.ao,.c,.j{fill:none;}.b{clip-path:url(#a);}.ak,.ao,.c,.j{stroke:#5895b0;}.c{stroke-width:15px;}.d{clip-path:url(#b);}.e{fill:#e6a324;}.f{font-size:27.0299px;}.an,.f{fill:#fff;}.ar,.f,.k,.x{font-family:BebasNeueBold, Bebas Neue;}.g{letter-spacing:0.017em;}.h{letter-spacing:-0.017em;}.i{letter-spacing:0.01em;}.j{stroke-linecap:round;}.ak,.j{stroke-width:2.796px;}.k{font-size:19px;fill:#2e4a79;}.l{letter-spacing:-0.021em;}.m{letter-spacing:-0.027em;}.n{letter-spacing:0.005em;}.o{letter-spacing:-0.005em;}.p{letter-spacing:-0.004em;}.q{letter-spacing:-0.008em;}.r{letter-spacing:0.011em;}.s{letter-spacing:0em;}.t{letter-spacing:-0.003em;}.u{letter-spacing:-0.071em;}.v{letter-spacing:-0.037em;}.w{letter-spacing:-0.042em;}.x{font-size:21.4375px;}.aj,.ar,.x{fill:#656666;}.y{letter-spacing:-0.002em;}.z{letter-spacing:0.008em;}.aa{letter-spacing:0.012em;}.ab{letter-spacing:-0.027em;}.ac{letter-spacing:-0.024em;}.ad{letter-spacing:-0.001em;}.ae{letter-spacing:-0.007em;}.af{letter-spacing:0.004em;}.ag{letter-spacing:-0.001em;}.ah{letter-spacing:0.01em;}.ai{letter-spacing:0.011em;}.al{clip-path:url(#c);}.am{fill:#5895b0;}.ao{stroke-width:6px;}.ap{opacity:0.3;}.aq{clip-path:url(#f);}.ar{font-size:16px;}.as{letter-spacing:0.004em;}.at{letter-spacing:0.003em;}.au{letter-spacing:0.009em;}.av{letter-spacing:-0.003em;}.aw{letter-spacing:-0.002em;}.ax{letter-spacing:0.003em;}.ay{letter-spacing:0.006em;}.az{letter-spacing:0.015em;}.ba{letter-spacing:0.005em;}.bb{letter-spacing:0.007em;}.bc{letter-spacing:-0.022em;}.bd{letter-spacing:0.007em;}.be{letter-spacing:0.009em;}.bf{letter-spacing:0.028em;}</style><clipPath id="a"><rect class="a" x="-367.64" y="-159.25" width="1190.55" height="841.89"/></clipPath><clipPath id="b"><rect class="a" x="-367.64" y="-159.25" width="1190.551" height="841.89"/></clipPath><clipPath id="c"><path class="a" d="M22.539,177.356a52.003,52.003,0,1,0,52.003-52.003,52.0036,52.0036,0,0,0-52.003,52.003"/></clipPath><clipPath id="f"><rect class="a" x="3.469" y="243.223" width="141.923" height="39.315"/></clipPath></defs><g class="b"><rect class="c" x="-333.467" y="-122.695" width="1122.2049" height="768.78"/><g class="d"><path class="e" d="M20.8,12.82s-16,0-16,16v2.945s0,16,16,16h107.923s16,0,16-16V28.82s0-16-16-16Z"/></g><text class="f" transform="translate(46.7882 39.6)"><tspan class="g">L</tspan><tspan x="9.6226" y="0">A </tspan><tspan class="h" x="24.813" y="0">P</tspan><tspan class="i" x="34.6787" y="0">A</tspan><tspan x="45.9502" y="0">Z</tspan></text><line class="j" x1="143.105" y1="83.6872" x2="143.105" y2="95.3052"/><text class="k" transform="translate(12.9772 87.8973)"><tspan class="l">W</tspan><tspan class="m" x="10.2979" y="0">A</tspan><tspan class="n" x="17.5176" y="0">T</tspan><tspan class="o" x="24.3765" y="0">E</tspan><tspan x="31.2734" y="0">R B</tspan><tspan class="p" x="49.5703" y="0">O</tspan><tspan class="q" x="57.0181" y="0">I</tspan><tspan class="r" x="60.4756" y="0">L</tspan><tspan class="p" x="67.1255" y="0">S</tspan><tspan class="s" x="74.1553" y="0">: </tspan><tspan class="t" x="80.6343" y="0">8</tspan><tspan class="u" x="88.1011" y="0">7</tspan><tspan class="v" x="94.2759" y="0">.</tspan><tspan class="w" x="97.1069" y="0">7</tspan><tspan x="103.833" y="0">1 </tspan></text><text class="k" transform="translate(125.4948 89.7616)">˚</text><text class="k" transform="translate(128.7726 87.8973)">C</text><text class="x" transform="translate(14.2203 68.5331)"><tspan class="y">E</tspan><tspan class="z" x="7.8462" y="0">L</tspan><tspan class="aa" x="15.2847" y="0">E</tspan><tspan class="ab" x="23.4307" y="0">V</tspan><tspan class="ac" x="31.4697" y="0">A</tspan><tspan class="z" x="39.6802" y="0">T</tspan><tspan class="ad" x="47.4829" y="0">I</tspan><tspan x="51.5347" y="0">O</tspan><tspan class="ae" x="60.0239" y="0">N</tspan><tspan class="af" x="69.0273" y="0">: </tspan><tspan class="ag" x="76.5088" y="0">3</tspan><tspan class="ah" x="84.9766" y="0">6</tspan><tspan class="ai" x="93.6797" y="0">4</tspan><tspan x="102.4048" y="0">0</tspan></text><path class="aj" d="M127.0911,58.2381h.8018l.1025,1.5972h.0469a4.7729,4.7729,0,0,1,3.2549-1.8545,2.6635,2.6635,0,0,1,2.8428,2.1011c1.1679-1.2861,2.3066-2.1011,3.4941-2.1011,2.05,0,3.0791,1.291,3.0791,3.9492v6.6031h-.9473v-6.479c0-2.1822-.73-3.22-2.3076-3.22-.9687,0-1.9463.6431-3.083,1.9336v7.7652h-.9473v-6.479c0-2.1822-.7285-3.22-2.3066-3.22-.9307,0-1.9463.6431-3.083,1.9336v7.7652h-.9473Z"/><line class="j" x1="5.8675" y1="83.6872" x2="5.8675" y2="95.3052"/><line class="ak" x1="144.5031" y1="95.3049" x2="4.4691" y2="95.3049"/><line class="ak" x1="74.4863" y1="95.305" x2="74.4863" y2="126.092"/><g class="al"><rect class="am" x="53.417" y="144.217" width="42.139" height="83.302"/><rect class="an" x="56.045" y="148.661" width="2.644" height="2.614"/><rect class="an" x="59.968" y="148.661" width="6.935" height="2.614"/><rect class="an" x="90.284" y="148.661" width="2.644" height="2.614"/><rect class="an" x="71.522" y="148.661" width="6.935" height="2.614"/><rect class="an" x="79.736" y="148.661" width="2.644" height="2.614"/><rect class="an" x="83.048" y="148.661" width="2.644" height="2.614"/><rect class="an" x="56.045" y="153.72" width="2.644" height="2.614"/><rect class="an" x="59.968" y="153.72" width="6.935" height="2.614"/><rect class="an" x="90.284" y="153.72" width="2.644" height="2.614"/><rect class="an" x="71.522" y="153.72" width="6.935" height="2.614"/><rect class="an" x="79.736" y="153.72" width="2.644" height="2.614"/><rect class="an" x="83.048" y="153.72" width="2.644" height="2.614"/><rect class="an" x="56.045" y="158.78" width="2.644" height="2.614"/><rect class="an" x="59.968" y="158.78" width="6.935" height="2.614"/><rect class="an" x="90.284" y="158.78" width="2.644" height="2.614"/><rect class="an" x="71.522" y="158.78" width="6.935" height="2.614"/><rect class="an" x="79.736" y="158.78" width="2.644" height="2.614"/><rect class="an" x="83.048" y="158.78" width="2.644" height="2.614"/><rect class="an" x="56.045" y="163.84" width="2.644" height="2.614"/><rect class="an" x="59.968" y="163.84" width="6.935" height="2.614"/><rect class="an" x="90.284" y="163.84" width="2.644" height="2.614"/><rect class="an" x="71.522" y="163.84" width="6.935" height="2.614"/><rect class="an" x="79.736" y="163.84" width="2.644" height="2.614"/><rect class="an" x="83.048" y="163.84" width="2.644" height="2.614"/><rect class="an" x="56.045" y="168.9" width="2.644" height="2.614"/><rect class="an" x="59.968" y="168.9" width="6.935" height="2.614"/><rect class="an" x="90.284" y="168.9" width="2.644" height="2.614"/><rect class="an" x="71.522" y="168.9" width="6.935" height="2.614"/><rect class="an" x="79.736" y="168.9" width="2.644" height="2.614"/><rect class="an" x="83.048" y="168.9" width="2.644" height="2.614"/><rect class="an" x="56.045" y="173.96" width="2.644" height="2.614"/><rect class="an" x="59.968" y="173.96" width="6.935" height="2.614"/><rect class="an" x="90.284" y="173.96" width="2.644" height="2.614"/><rect class="an" x="71.522" y="173.96" width="6.935" height="2.614"/><rect class="an" x="79.736" y="173.96" width="2.644" height="2.614"/><rect class="an" x="83.048" y="173.96" width="2.644" height="2.614"/><rect class="an" x="56.045" y="179.019" width="2.644" height="2.614"/><rect class="an" x="59.968" y="179.019" width="6.935" height="2.614"/><rect class="an" x="90.284" y="179.019" width="2.644" height="2.614"/><rect class="an" x="71.522" y="179.019" width="6.935" height="2.614"/><rect class="an" x="79.736" y="179.019" width="2.644" height="2.614"/><rect class="an" x="83.048" y="179.019" width="2.644" height="2.614"/><rect class="an" x="56.045" y="184.079" width="2.644" height="2.614"/><rect class="an" x="59.968" y="184.079" width="6.935" height="2.614"/><rect class="an" x="90.284" y="184.079" width="2.644" height="2.614"/><rect class="an" x="71.522" y="184.079" width="6.935" height="2.614"/><rect class="an" x="79.736" y="184.079" width="2.644" height="2.614"/><rect class="an" x="83.048" y="184.079" width="2.644" height="2.614"/><rect class="an" x="56.045" y="189.139" width="2.644" height="2.614"/><rect class="an" x="59.968" y="189.139" width="6.935" height="2.614"/><rect class="an" x="90.284" y="189.139" width="2.644" height="2.614"/><rect class="an" x="71.522" y="189.139" width="6.935" height="2.614"/><rect class="an" x="79.736" y="189.139" width="2.644" height="2.614"/><rect class="an" x="83.048" y="189.139" width="2.644" height="2.614"/><rect class="an" x="56.045" y="194.199" width="2.644" height="2.614"/><rect class="an" x="59.968" y="194.199" width="6.935" height="2.614"/><rect class="an" x="90.284" y="194.199" width="2.644" height="2.614"/><rect class="an" x="71.522" y="194.199" width="6.935" height="2.614"/><rect class="an" x="79.736" y="194.199" width="2.644" height="2.614"/><rect class="an" x="83.048" y="194.199" width="2.644" height="2.614"/><rect class="an" x="56.045" y="199.259" width="2.644" height="2.614"/><rect class="an" x="59.968" y="199.259" width="6.935" height="2.614"/><rect class="an" x="90.284" y="199.259" width="2.644" height="2.614"/><rect class="an" x="71.522" y="199.259" width="6.935" height="2.614"/><rect class="an" x="79.736" y="199.259" width="2.644" height="2.614"/><rect class="an" x="83.048" y="199.259" width="2.644" height="2.614"/><rect class="an" x="56.045" y="204.319" width="2.644" height="2.614"/><rect class="an" x="59.968" y="204.319" width="6.935" height="2.614"/><rect class="an" x="90.284" y="204.319" width="2.644" height="2.614"/><rect class="an" x="71.522" y="204.319" width="6.935" height="2.614"/><rect class="an" x="79.736" y="204.319" width="2.644" height="2.614"/><rect class="an" x="83.048" y="204.319" width="2.644" height="2.614"/><rect class="an" x="56.045" y="209.378" width="2.644" height="2.614"/><rect class="an" x="59.968" y="209.378" width="6.935" height="2.614"/><rect class="an" x="90.284" y="209.378" width="2.644" height="2.614"/><rect class="an" x="71.522" y="209.378" width="6.935" height="2.614"/><rect class="an" x="79.736" y="209.378" width="2.644" height="2.614"/><rect class="an" x="83.048" y="209.378" width="2.644" height="2.614"/><rect class="an" x="56.045" y="214.438" width="2.644" height="2.614"/><rect class="an" x="59.968" y="214.438" width="6.935" height="2.614"/><rect class="an" x="90.284" y="214.438" width="2.644" height="2.614"/><rect class="an" x="71.522" y="214.438" width="6.935" height="2.614"/><rect class="an" x="79.736" y="214.438" width="2.644" height="2.614"/><rect class="an" x="83.048" y="214.438" width="2.644" height="2.614"/><rect class="an" x="56.045" y="219.498" width="2.644" height="2.614"/><rect class="an" x="59.968" y="219.498" width="6.935" height="2.614"/><rect class="an" x="90.284" y="219.498" width="2.644" height="2.614"/><rect class="an" x="71.522" y="219.498" width="6.935" height="2.614"/><rect class="an" x="79.736" y="219.498" width="2.644" height="2.614"/><rect class="an" x="83.048" y="219.498" width="2.644" height="2.614"/><rect class="am" x="99.568" y="149.489" width="42.139" height="83.302"/><rect class="an" x="102.196" y="153.932" width="2.644" height="2.614"/><rect class="an" x="106.119" y="153.932" width="6.935" height="2.614"/><rect class="an" x="136.435" y="153.932" width="2.644" height="2.614"/><rect class="an" x="117.674" y="153.932" width="6.935" height="2.614"/><rect class="an" x="125.887" y="153.932" width="2.644" height="2.614"/><rect class="an" x="129.2" y="153.932" width="2.644" height="2.614"/><rect class="an" x="102.196" y="158.992" width="2.644" height="2.614"/><rect class="an" x="106.119" y="158.992" width="6.935" height="2.614"/><rect class="an" x="136.435" y="158.992" width="2.644" height="2.614"/><rect class="an" x="117.674" y="158.992" width="6.935" height="2.614"/><rect class="an" x="125.887" y="158.992" width="2.644" height="2.614"/><rect class="an" x="129.2" y="158.992" width="2.644" height="2.614"/><rect class="an" x="102.196" y="164.052" width="2.644" height="2.614"/><rect class="an" x="106.119" y="164.052" width="6.935" height="2.614"/><rect class="an" x="136.435" y="164.052" width="2.644" height="2.614"/><rect class="an" x="117.674" y="164.052" width="6.935" height="2.614"/><rect class="an" x="125.887" y="164.052" width="2.644" height="2.614"/><rect class="an" x="129.2" y="164.052" width="2.644" height="2.614"/><rect class="an" x="102.196" y="169.112" width="2.644" height="2.614"/><rect class="an" x="106.119" y="169.112" width="6.935" height="2.614"/><rect class="an" x="136.435" y="169.112" width="2.644" height="2.614"/><rect class="an" x="117.674" y="169.112" width="6.935" height="2.614"/><rect class="an" x="125.887" y="169.112" width="2.644" height="2.614"/><rect class="an" x="129.2" y="169.112" width="2.644" height="2.614"/><rect class="an" x="102.196" y="174.171" width="2.644" height="2.614"/><rect class="an" x="106.119" y="174.171" width="6.935" height="2.614"/><rect class="an" x="136.435" y="174.171" width="2.644" height="2.614"/><rect class="an" x="117.674" y="174.171" width="6.935" height="2.614"/><rect class="an" x="125.887" y="174.171" width="2.644" height="2.614"/><rect class="an" x="129.2" y="174.171" width="2.644" height="2.614"/><rect class="an" x="102.196" y="179.231" width="2.644" height="2.614"/><rect class="an" x="106.119" y="179.231" width="6.935" height="2.614"/><rect class="an" x="136.435" y="179.231" width="2.644" height="2.614"/><rect class="an" x="117.674" y="179.231" width="6.935" height="2.614"/><rect class="an" x="125.887" y="179.231" width="2.644" height="2.614"/><rect class="an" x="129.2" y="179.231" width="2.644" height="2.614"/><rect class="an" x="102.196" y="184.291" width="2.644" height="2.614"/><rect class="an" x="106.119" y="184.291" width="6.935" height="2.614"/><rect class="an" x="136.435" y="184.291" width="2.644" height="2.614"/><rect class="an" x="117.674" y="184.291" width="6.935" height="2.614"/><rect class="an" x="125.887" y="184.291" width="2.644" height="2.614"/><rect class="an" x="129.2" y="184.291" width="2.644" height="2.614"/><rect class="an" x="102.196" y="189.351" width="2.644" height="2.614"/><rect class="an" x="106.119" y="189.351" width="6.935" height="2.614"/><rect class="an" x="136.435" y="189.351" width="2.644" height="2.614"/><rect class="an" x="117.674" y="189.351" width="6.935" height="2.614"/><rect class="an" x="125.887" y="189.351" width="2.644" height="2.614"/><rect class="an" x="129.2" y="189.351" width="2.644" height="2.614"/><rect class="an" x="102.196" y="194.411" width="2.644" height="2.614"/><rect class="an" x="106.119" y="194.411" width="6.935" height="2.614"/><rect class="an" x="136.435" y="194.411" width="2.644" height="2.614"/><rect class="an" x="117.674" y="194.411" width="6.935" height="2.614"/><rect class="an" x="125.887" y="194.411" width="2.644" height="2.614"/><rect class="an" x="129.2" y="194.411" width="2.644" height="2.614"/><rect class="an" x="102.196" y="199.47" width="2.644" height="2.614"/><rect class="an" x="106.119" y="199.47" width="6.935" height="2.614"/><rect class="an" x="136.435" y="199.47" width="2.644" height="2.614"/><rect class="an" x="117.674" y="199.47" width="6.935" height="2.614"/><rect class="an" x="125.887" y="199.47" width="2.644" height="2.614"/><rect class="an" x="129.2" y="199.47" width="2.644" height="2.614"/><rect class="an" x="102.196" y="204.53" width="2.644" height="2.614"/><rect class="an" x="106.119" y="204.53" width="6.935" height="2.614"/><rect class="an" x="136.435" y="204.53" width="2.644" height="2.614"/><rect class="an" x="117.674" y="204.53" width="6.935" height="2.614"/><rect class="an" x="125.887" y="204.53" width="2.644" height="2.614"/><rect class="an" x="129.2" y="204.53" width="2.644" height="2.614"/><rect class="an" x="102.196" y="209.59" width="2.644" height="2.614"/><rect class="an" x="106.119" y="209.59" width="6.935" height="2.614"/><rect class="an" x="136.435" y="209.59" width="2.644" height="2.614"/><rect class="an" x="117.674" y="209.59" width="6.935" height="2.614"/><rect class="an" x="125.887" y="209.59" width="2.644" height="2.614"/><rect class="an" x="129.2" y="209.59" width="2.644" height="2.614"/><rect class="an" x="102.196" y="214.65" width="2.644" height="2.614"/><rect class="an" x="106.119" y="214.65" width="6.935" height="2.614"/><rect class="an" x="136.435" y="214.65" width="2.644" height="2.614"/><rect class="an" x="117.674" y="214.65" width="6.935" height="2.614"/><rect class="an" x="125.887" y="214.65" width="2.644" height="2.614"/><rect class="an" x="129.2" y="214.65" width="2.644" height="2.614"/><rect class="an" x="102.196" y="219.71" width="2.644" height="2.614"/><rect class="an" x="106.119" y="219.71" width="6.935" height="2.614"/><rect class="an" x="136.435" y="219.71" width="2.644" height="2.614"/><rect class="an" x="117.674" y="219.71" width="6.935" height="2.614"/><rect class="an" x="125.887" y="219.71" width="2.644" height="2.614"/><rect class="an" x="129.2" y="219.71" width="2.644" height="2.614"/><rect class="an" x="102.196" y="224.769" width="2.644" height="2.614"/><rect class="an" x="106.119" y="224.769" width="6.935" height="2.614"/><rect class="an" x="136.435" y="224.769" width="2.644" height="2.614"/><rect class="an" x="117.674" y="224.769" width="6.935" height="2.614"/><rect class="an" x="125.887" y="224.769" width="2.644" height="2.614"/><rect class="an" x="129.2" y="224.769" width="2.644" height="2.614"/><rect class="am" x="7.266" y="156.767" width="42.139" height="83.302"/><rect class="an" x="9.893" y="161.21" width="2.644" height="2.614"/><rect class="an" x="13.816" y="161.21" width="6.935" height="2.614"/><rect class="an" x="44.132" y="161.21" width="2.644" height="2.614"/><rect class="an" x="25.371" y="161.21" width="6.935" height="2.614"/><rect class="an" x="33.584" y="161.21" width="2.644" height="2.614"/><rect class="an" x="36.897" y="161.21" width="2.644" height="2.614"/><rect class="an" x="9.893" y="166.27" width="2.644" height="2.614"/><rect class="an" x="13.816" y="166.27" width="6.935" height="2.614"/><rect class="an" x="44.132" y="166.27" width="2.644" height="2.614"/><rect class="an" x="25.371" y="166.27" width="6.935" height="2.614"/><rect class="an" x="33.584" y="166.27" width="2.644" height="2.614"/><rect class="an" x="36.897" y="166.27" width="2.644" height="2.614"/><rect class="an" x="9.893" y="171.33" width="2.644" height="2.614"/><rect class="an" x="13.816" y="171.33" width="6.935" height="2.614"/><rect class="an" x="44.132" y="171.33" width="2.644" height="2.614"/><rect class="an" x="25.371" y="171.33" width="6.935" height="2.614"/><rect class="an" x="33.584" y="171.33" width="2.644" height="2.614"/><rect class="an" x="36.897" y="171.33" width="2.644" height="2.614"/><rect class="an" x="9.893" y="176.39" width="2.644" height="2.614"/><rect class="an" x="13.816" y="176.39" width="6.935" height="2.614"/><rect class="an" x="44.132" y="176.39" width="2.644" height="2.614"/><rect class="an" x="25.371" y="176.39" width="6.935" height="2.614"/><rect class="an" x="33.584" y="176.39" width="2.644" height="2.614"/><rect class="an" x="36.897" y="176.39" width="2.644" height="2.614"/><rect class="an" x="9.893" y="181.45" width="2.644" height="2.614"/><rect class="an" x="13.816" y="181.45" width="6.935" height="2.614"/><rect class="an" x="44.132" y="181.45" width="2.644" height="2.614"/><rect class="an" x="25.371" y="181.45" width="6.935" height="2.614"/><rect class="an" x="33.584" y="181.45" width="2.644" height="2.614"/><rect class="an" x="36.897" y="181.45" width="2.644" height="2.614"/><rect class="an" x="9.893" y="186.509" width="2.644" height="2.614"/><rect class="an" x="13.816" y="186.509" width="6.935" height="2.614"/><rect class="an" x="44.132" y="186.509" width="2.644" height="2.614"/><rect class="an" x="25.371" y="186.509" width="6.935" height="2.614"/><rect class="an" x="33.584" y="186.509" width="2.644" height="2.614"/><rect class="an" x="36.897" y="186.509" width="2.644" height="2.614"/><rect class="an" x="9.893" y="191.569" width="2.644" height="2.614"/><rect class="an" x="13.816" y="191.569" width="6.935" height="2.614"/><rect class="an" x="44.132" y="191.569" width="2.644" height="2.614"/><rect class="an" x="25.371" y="191.569" width="6.935" height="2.614"/><rect class="an" x="33.584" y="191.569" width="2.644" height="2.614"/><rect class="an" x="36.897" y="191.569" width="2.644" height="2.614"/><rect class="an" x="9.893" y="196.629" width="2.644" height="2.614"/><rect class="an" x="13.816" y="196.629" width="6.935" height="2.614"/><rect class="an" x="44.132" y="196.629" width="2.644" height="2.614"/><rect class="an" x="25.371" y="196.629" width="6.935" height="2.614"/><rect class="an" x="33.584" y="196.629" width="2.644" height="2.614"/><rect class="an" x="36.897" y="196.629" width="2.644" height="2.614"/><rect class="an" x="9.893" y="201.689" width="2.644" height="2.614"/><rect class="an" x="13.816" y="201.689" width="6.935" height="2.614"/><rect class="an" x="44.132" y="201.689" width="2.644" height="2.614"/><rect class="an" x="25.371" y="201.689" width="6.935" height="2.614"/><rect class="an" x="33.584" y="201.689" width="2.644" height="2.614"/><rect class="an" x="36.897" y="201.689" width="2.644" height="2.614"/><rect class="an" x="9.893" y="206.749" width="2.644" height="2.614"/><rect class="an" x="13.816" y="206.749" width="6.935" height="2.614"/><rect class="an" x="44.132" y="206.749" width="2.644" height="2.614"/><rect class="an" x="25.371" y="206.749" width="6.935" height="2.614"/><rect class="an" x="33.584" y="206.749" width="2.644" height="2.614"/><rect class="an" x="36.897" y="206.749" width="2.644" height="2.614"/><rect class="an" x="9.893" y="211.808" width="2.644" height="2.614"/><rect class="an" x="13.816" y="211.808" width="6.935" height="2.614"/><rect class="an" x="44.132" y="211.808" width="2.644" height="2.614"/><rect class="an" x="25.371" y="211.808" width="6.935" height="2.614"/><rect class="an" x="33.584" y="211.808" width="2.644" height="2.614"/><rect class="an" x="36.897" y="211.808" width="2.644" height="2.614"/><rect class="an" x="9.893" y="216.868" width="2.644" height="2.614"/><rect class="an" x="13.816" y="216.868" width="6.935" height="2.614"/><rect class="an" x="44.132" y="216.868" width="2.644" height="2.614"/><rect class="an" x="25.371" y="216.868" width="6.935" height="2.614"/><rect class="an" x="33.584" y="216.868" width="2.644" height="2.614"/><rect class="an" x="36.897" y="216.868" width="2.644" height="2.614"/><rect class="an" x="9.893" y="221.928" width="2.644" height="2.614"/><rect class="an" x="13.816" y="221.928" width="6.935" height="2.614"/><rect class="an" x="44.132" y="221.928" width="2.644" height="2.614"/><rect class="an" x="25.371" y="221.928" width="6.935" height="2.614"/><rect class="an" x="33.584" y="221.928" width="2.644" height="2.614"/><rect class="an" x="36.897" y="221.928" width="2.644" height="2.614"/><rect class="an" x="9.893" y="226.988" width="2.644" height="2.614"/><rect class="an" x="13.816" y="226.988" width="6.935" height="2.614"/><rect class="an" x="44.132" y="226.988" width="2.644" height="2.614"/><rect class="an" x="25.371" y="226.988" width="6.935" height="2.614"/><rect class="an" x="33.584" y="226.988" width="2.644" height="2.614"/><rect class="an" x="36.897" y="226.988" width="2.644" height="2.614"/><rect class="an" x="9.893" y="232.048" width="2.644" height="2.614"/><rect class="an" x="13.816" y="232.048" width="6.935" height="2.614"/><rect class="an" x="44.132" y="232.048" width="2.644" height="2.614"/><rect class="an" x="25.371" y="232.048" width="6.935" height="2.614"/><rect class="an" x="33.584" y="232.048" width="2.644" height="2.614"/><rect class="an" x="36.897" y="232.048" width="2.644" height="2.614"/></g><g class="d"><circle class="ao" cx="74.5418" cy="177.3555" r="52.003"/></g><g class="d"><g class="ap"><g class="aq"><path class="e" d="M15.808,244.2228s-11.339,0-11.339,11.339v14.637s0,11.339,11.339,11.339H133.053s11.339,0,11.339-11.339v-14.637s0-11.339-11.339-11.339Z"/></g></g></g><text class="ar" transform="translate(31.299 262.0218)"><tspan class="as">W</tspan><tspan x="9.0718" y="0">O</tspan><tspan class="at" x="15.4077" y="0">R</tspan><tspan class="au" x="21.8877" y="0">L</tspan><tspan class="av" x="27.4556" y="0">D</tspan><tspan class="aw" x="33.9351" y="0">’</tspan><tspan class="ax" x="36.8789" y="0">S </tspan><tspan class="av" x="45.439" y="0">H</tspan><tspan x="52.2227" y="0">IG</tspan><tspan class="aw" x="61.5024" y="0">H</tspan><tspan class="ay" x="68.3022" y="0">E</tspan><tspan class="az" x="74.2861" y="0">S</tspan><tspan x="80.5103" y="0">T </tspan></text><text class="ar" transform="translate(42.3493 276.0218)"><tspan class="ba">C</tspan><tspan class="bb" x="6.2559" y="0">A</tspan><tspan class="ba" x="12.8799" y="0">P</tspan><tspan class="au" x="19.0718" y="0">I</tspan><tspan class="bc" x="22.2554" y="0">T</tspan><tspan class="bd" x="27.5991" y="0">A</tspan><tspan class="as" x="34.2231" y="0">L</tspan><tspan class="at" x="39.7109" y="0"> </tspan><tspan x="42.2388" y="0">C</tspan><tspan class="be" x="48.4146" y="0">I</tspan><tspan class="bf" x="51.5986" y="0">T</tspan><tspan x="57.7422" y="0">Y</tspan></text></g></svg>