<svg xmlns="http://www.w3.org/2000/svg" xmlns:xlink="http://www.w3.org/1999/xlink" viewBox="0 0 154.44 293.04"><defs><style>.a,.ap,.aq,.at,.c,.o{fill:none;}.b{clip-path:url(#a);}.ap,.aq,.c,.o{stroke:#5895b0;}.c{stroke-width:15px;}.d{clip-path:url(#b);}.e{fill:#e6a324;}.f{font-size:27.0299px;}.as,.f{fill:#fff;}.ab,.aw,.f,.p{font-family:BebasNeueBold, Bebas Neue;}.g{letter-spacing:0.002em;}.h{letter-spacing:-0.01em;}.i{letter-spacing:0.002em;}.j{letter-spacing:0.001em;}.k{letter-spacing:0.002em;}.l{letter-spacing:-0.006em;}.m{letter-spacing:0.001em;}.n{letter-spacing:-0.004em;}.o{stroke-linecap:round;}.ap,.o{stroke-width:2.796px;}.p{font-size:19px;fill:#2e4a79;}.q{letter-spacing:-0.021em;}.r{letter-spacing:-0.027em;}.s{letter-spacing:0.005em;}.t{letter-spacing:-0.005em;}.u{letter-spacing:-0.004em;}.v{letter-spacing:-0.008em;}.w{letter-spacing:0.011em;}.x{letter-spacing:0em;}.y{letter-spacing:-0.008em;}.z{letter-spacing:-0.01em;}.aa{letter-spacing:-0.005em;}.ab{font-size:21.4375px;}.ab,.ao,.aw{fill:#656666;}.ac{letter-spacing:-0.002em;}.ad{letter-spacing:0.008em;}.ae{letter-spacing:0.012em;}.af{letter-spacing:-0.027em;}.ag{letter-spacing:-0.024em;}.ah{letter-spacing:-0.001em;}.ai{letter-spacing:-0.007em;}.aj{letter-spacing:0.004em;}.ak{letter-spacing:0.002em;}.al{letter-spacing:0.004em;}.am{letter-spacing:-0.002em;}.an{letter-spacing:0em;}.aq{stroke-width:6px;}.ar{fill:#5895b0;}.at{stroke:#fff;stroke-width:2px;}.au{opacity:0.3;}.av{clip-path:url(#f);}.aw{font-size:16px;}.ax{letter-spacing:-0.003em;}.ay{letter-spacing:-0.002em;}.az{letter-spacing:0.006em;}.ba{letter-spacing:0.015em;}.bb{letter-spacing:0.004em;}.bc{letter-spacing:0.003em;}.bd{letter-spacing:0.007em;}.be{letter-spacing:0.003em;}.bf{letter-spacing:0em;}.bg{letter-spacing:-0.017em;}.bh{letter-spacing:-0.006em;}.bi{letter-spacing:0.015em;}.bj{letter-spacing:-0.022em;}.bk{letter-spacing:0.008em;}.bl{letter-spacing:-0.003em;}.bm{letter-spacing:0.001em;}.bn{letter-spacing:0em;}.bo{letter-spacing:0.01em;}.bp{letter-spacing:-0.022em;}.bq{letter-spacing:0.008em;}</style><clipPath id="a"><rect class="a" x="-213.2" y="-159.25" width="1190.55" height="841.89"/></clipPath><clipPath id="b"><rect class="a" x="-213.2" y="-159.25" width="1190.551" height="841.89"/></clipPath><clipPath id="f"><rect class="a" x="5.856" y="243.223" width="141.922" height="39.315"/></clipPath></defs><g class="b"><rect class="c" x="-179.027" y="-122.695" width="1122.2049" height="768.78"/><g class="d"><path class="e" d="M22.8,12.82s-16,0-16,16v2.945s0,16,16,16h107.923s16,0,16-16V28.82s0-16-16-16Z"/></g><text class="f" transform="translate(23.403 39.6)"><tspan class="g">K</tspan><tspan class="h" x="11.2441" y="0">I</tspan><tspan class="i" x="16.1089" y="0">L</tspan><tspan class="h" x="25.3262" y="0">I</tspan><tspan class="g" x="30.1909" y="0">M</tspan><tspan class="j" x="44.8677" y="0">A</tspan><tspan class="k" x="55.896" y="0">N</tspan><tspan class="l" x="67.4912" y="0">J</tspan><tspan class="m" x="74.249" y="0">A</tspan><tspan class="n" x="85.2769" y="0">R</tspan><tspan x="96.0347" y="0">O</tspan></text><line class="o" x1="145.4359" y1="83.6872" x2="145.4359" y2="95.3052"/><text class="p" transform="translate(14.0685 87.8973)"><tspan class="q">W</tspan><tspan class="r" x="10.2979" y="0">A</tspan><tspan class="s" x="17.5176" y="0">T</tspan><tspan class="t" x="24.3765" y="0">E</tspan><tspan x="31.2734" y="0">R B</tspan><tspan class="u" x="49.5703" y="0">O</tspan><tspan class="v" x="57.0181" y="0">I</tspan><tspan class="w" x="60.4756" y="0">L</tspan><tspan class="u" x="67.1255" y="0">S</tspan><tspan class="x" x="74.1553" y="0">: 8</tspan><tspan class="y" x="88.1582" y="0">0</tspan><tspan class="z" x="95.5303" y="0">.</tspan><tspan class="aa" x="98.874" y="0">3</tspan><tspan x="106.3027" y="0">3 </tspan></text><text class="p" transform="translate(129.0656 89.7616)">˚</text><text class="p" transform="translate(132.343 87.8973)">C</text><text class="ab" transform="translate(16.757 68.5331)"><tspan class="ac">E</tspan><tspan class="ad" x="7.8462" y="0">L</tspan><tspan class="ae" x="15.2847" y="0">E</tspan><tspan class="af" x="23.4307" y="0">V</tspan><tspan class="ag" x="31.4697" y="0">A</tspan><tspan class="ad" x="39.6802" y="0">T</tspan><tspan class="ah" x="47.4829" y="0">I</tspan><tspan x="51.5347" y="0">O</tspan><tspan class="ai" x="60.0239" y="0">N</tspan><tspan class="aj" x="69.0273" y="0">: </tspan><tspan class="ak" x="76.5088" y="0">5</tspan><tspan class="al" x="85.0405" y="0">8</tspan><tspan class="am" x="93.6157" y="0">9</tspan><tspan class="an" x="102.062" y="0">5</tspan></text><path class="ao" d="M129.2162,58.2381h.8017l.1031,1.5972h.0469a4.7715,4.7715,0,0,1,3.2543-1.8545,2.6631,2.6631,0,0,1,2.8428,2.1011c1.1685-1.2861,2.3071-2.1011,3.4946-2.1011,2.05,0,3.0787,1.291,3.0787,3.9492v6.6031h-.9473v-6.479c0-2.1822-.729-3.22-2.3071-3.22-.9688,0-1.9468.6431-3.083,1.9336v7.7652h-.9473v-6.479c0-2.1822-.729-3.22-2.3071-3.22-.93,0-1.9463.6431-3.0826,1.9336v7.7652h-.9477Z"/><line class="o" x1="8.1983" y1="83.6872" x2="8.1983" y2="95.3052"/><line class="ap" x1="146.8339" y1="95.3049" x2="6.7999" y2="95.3049"/><line class="ap" x1="76.8171" y1="95.305" x2="76.8171" y2="126.092"/><g class="d"><circle class="aq" cx="76.8726" cy="177.3555" r="52.003"/></g><polygon class="ar" points="26.588 185.71 76.859 142.64 126.934 185.71 118.431 209.854 98.021 223.788 69.675 229.097 46.997 218.646 34.525 205.978 26.588 185.71"/><polygon class="as" points="76.914 146.538 47.706 170.987 66.131 165.318 71.517 176.089 82.997 165.318 103.123 169.144 76.914 146.538"/><g class="d"><circle class="at" cx="76.7615" cy="177.3559" r="48.466"/></g><g class="d"><g class="au"><g class="av"><path class="e" d="M18.1944,244.2228s-11.339,0-11.339,11.339v14.637s0,11.339,11.339,11.339h117.245s11.339,0,11.339-11.339v-14.637s0-11.339-11.339-11.339Z"/></g></g></g><text class="aw" transform="translate(17.4074 262.0218)"><tspan class="ax">H</tspan><tspan x="6.7837" y="0">IG</tspan><tspan class="ay" x="16.0635" y="0">H</tspan><tspan class="az" x="22.8633" y="0">E</tspan><tspan class="ba" x="28.8472" y="0">S</tspan><tspan class="bb" x="35.0713" y="0">T</tspan><tspan class="bc" x="40.8311" y="0"> </tspan><tspan class="bd" x="43.3589" y="0">F</tspan><tspan class="be" x="48.9751" y="0">R</tspan><tspan class="bf" x="55.4546" y="0">E</tspan><tspan class="bg" x="61.3428" y="0">E</tspan><tspan class="bh" x="66.9585" y="0">-</tspan><tspan class="bi" x="71.1826" y="0">S</tspan><tspan class="bj" x="77.4063" y="0">T</tspan><tspan class="bk" x="82.75" y="0">A</tspan><tspan class="ay" x="89.3901" y="0">N</tspan><tspan x="96.1899" y="0">D</tspan><tspan class="bl" x="102.7178" y="0">I</tspan><tspan x="105.7095" y="0">NG </tspan></text><text class="aw" transform="translate(51.7243 276.0218)">M<tspan class="bm" x="8.6558" y="0">O</tspan><tspan class="bn" x="15.0078" y="0">U</tspan><tspan class="bo" x="21.3755" y="0">N</tspan><tspan class="bp" x="28.3672" y="0">T</tspan><tspan class="bq" x="33.7114" y="0">A</tspan><tspan class="ax" x="40.3511" y="0">I</tspan><tspan x="43.3428" y="0">N</tspan></text></g></svg>