<svg xmlns="http://www.w3.org/2000/svg" xmlns:xlink="http://www.w3.org/1999/xlink" viewBox="0 0 150.7274 292.2165"><defs><style>.a,.aj,.ak,.an,.ao,.c,.l{fill:none;}.b{clip-path:url(#a);}.aj,.ak,.an,.c,.l{stroke:#5895b0;}.c{stroke-width:15px;}.d{clip-path:url(#b);}.e{fill:#e6a324;}.f{font-size:27.0299px;}.am,.f{fill:#fff;}.ar,.f,.m,.y{font-family:BebasNeueBold, Bebas Neue;}.g{letter-spacing:0.005em;}.h{letter-spacing:-0.005em;}.i{letter-spacing:-0.009em;}.j{letter-spacing:-0.003em;}.k{letter-spacing:-0.006em;}.an,.l{stroke-linecap:round;}.aj,.l{stroke-width:2.796px;}.m{font-size:19px;fill:#2e4a79;}.n{letter-spacing:-0.021em;}.o{letter-spacing:-0.027em;}.p{letter-spacing:0.005em;}.q{letter-spacing:-0.005em;}.r{letter-spacing:-0.004em;}.s{letter-spacing:-0.008em;}.t{letter-spacing:0.0111em;}.u{letter-spacing:-0.002em;}.v{letter-spacing:-0.01em;}.w{letter-spacing:-0.009em;}.x{letter-spacing:0.0001em;}.y{font-size:21.4375px;}.ai,.ar,.y{fill:#656666;}.z{letter-spacing:-0.001em;}.aa{letter-spacing:0.008em;}.ab{letter-spacing:0.012em;}.ac{letter-spacing:-0.027em;}.ad{letter-spacing:-0.024em;}.ae{letter-spacing:-0.001em;}.af{letter-spacing:-0.007em;}.ag{letter-spacing:0.004em;}.ah{letter-spacing:-0.021em;}.ak{stroke-width:6px;}.al{fill:#5895b0;}.ao{stroke:#fff;stroke-width:2px;}.ap{opacity:0.3;}.aq{clip-path:url(#g);}.ar{font-size:16px;}.as{letter-spacing:0.005em;}.at{letter-spacing:0.008em;}.au{letter-spacing:0.009em;}.av{letter-spacing:-0.022em;}.aw{letter-spacing:0.004em;}.ax{letter-spacing:0.003em;}.ay{letter-spacing:0.009em;}.az{letter-spacing:0.028em;}.ba{letter-spacing:0.004em;}.bb{letter-spacing:-0.002em;}.bc{letter-spacing:-0.002em;}.bd{letter-spacing:0em;}.be{letter-spacing:0.004em;}.bf{letter-spacing:0.003em;}.bg{letter-spacing:0.008em;}.bh{letter-spacing:-0.0031em;}</style><clipPath id="a"><rect class="a" x="-520.0326" y="-160.0735" width="1190.55" height="841.89"/></clipPath><clipPath id="b"><rect class="a" x="-520.0326" y="-160.0735" width="1190.551" height="841.89"/></clipPath><clipPath id="g"><rect class="a" x="3.5164" y="242.3995" width="141.922" height="39.315"/></clipPath></defs><g class="b"><rect class="c" x="-485.8596" y="-123.5185" width="1122.2049" height="768.78"/><g class="d"><path class="e" d="M20.8464,11.9965s-16,0-16,16v2.945s0,16,16,16h107.923s16,0,16-16v-2.945s0-16-16-16Z"/></g><text class="f" transform="translate(42.7496 38.7765)"><tspan class="g">L</tspan><tspan class="h" x="9.2979" y="0">O</tspan><tspan class="i" x="19.8667" y="0">N</tspan><tspan class="j" x="31.1646" y="0">D</tspan><tspan class="k" x="42.1113" y="0">O</tspan><tspan x="52.6533" y="0">N</tspan></text><line class="l" x1="143.1517" y1="82.8637" x2="143.1517" y2="94.4817"/><text class="m" transform="translate(11.7984 87.0738)"><tspan class="n">W</tspan><tspan class="o" x="10.2979" y="0">A</tspan><tspan class="p" x="17.5176" y="0">T</tspan><tspan class="q" x="24.3765" y="0">E</tspan><tspan x="31.2734" y="0">R B</tspan><tspan class="r" x="49.5703" y="0">O</tspan><tspan class="s" x="57.0181" y="0">I</tspan><tspan class="t" x="60.4756" y="0">L</tspan><tspan class="r" x="67.126" y="0">S</tspan><tspan x="74.1553" y="0">: </tspan><tspan class="u" x="80.6338" y="0">9</tspan><tspan class="v" x="88.1201" y="0">9</tspan><tspan class="w" x="95.4541" y="0">.</tspan><tspan class="r" x="98.8164" y="0">9</tspan><tspan class="x" x="106.2646" y="0">6 </tspan></text><text class="m" transform="translate(126.7672 88.9381)">˚</text><text class="m" transform="translate(130.0445 87.0738)">C</text><text class="y" transform="translate(23.1339 67.7096)"><tspan class="z">E</tspan><tspan class="aa" x="7.8677" y="0">L</tspan><tspan class="ab" x="15.3062" y="0">E</tspan><tspan class="ac" x="23.4521" y="0">V</tspan><tspan class="ad" x="31.4912" y="0">A</tspan><tspan class="aa" x="39.7017" y="0">T</tspan><tspan class="ae" x="47.5044" y="0">I</tspan><tspan x="51.5562" y="0">O</tspan><tspan class="af" x="60.0454" y="0">N</tspan><tspan class="ag" x="69.0483" y="0">: </tspan><tspan class="ah" x="76.5298" y="0">1</tspan><tspan x="84.5688" y="0">4</tspan></text><path class="ai" d="M118.2708,57.4147h.8017l.1026,1.5971h.0478a4.771,4.771,0,0,1,3.2539-1.8545,2.6628,2.6628,0,0,1,2.8428,2.1011c1.1689-1.2861,2.3066-2.1011,3.4951-2.1011,2.0488,0,3.0781,1.291,3.0781,3.9493V67.71h-.9472v-6.479c0-2.1822-.73-3.22-2.3067-3.22-.97,0-1.9472.6431-3.083,1.9336V67.71h-.9482v-6.479c0-2.1822-.7285-3.22-2.3067-3.22-.9306,0-1.9463.6431-3.083,1.9336V67.71h-.9472Z"/><line class="l" x1="5.9144" y1="82.8637" x2="5.9144" y2="94.4817"/><line class="aj" x1="144.5499" y1="94.4814" x2="4.5159" y2="94.4814"/><line class="aj" x1="74.533" y1="94.4815" x2="74.533" y2="125.2685"/><g class="d"><circle class="ak" cx="74.533" cy="176.532" r="52.003" transform="translate(-102.9968 104.4078) rotate(-45)"/></g><rect class="al" x="60.9094" y="165.3895" width="27.247" height="25.866"/><g class="d"><path class="am" d="M74.533,186.4976a8.362,8.362,0,1,0-8.362-8.362,8.3623,8.3623,0,0,0,8.362,8.362"/><path class="al" d="M74.533,177.2382a.897.897,0,1,1-.897.897.8975.8975,0,0,1,.897-.897"/></g><line class="an" x1="74.033" y1="177.6354" x2="69.37" y2="173.8595"/><line class="an" x1="75.033" y1="177.6354" x2="77.918" y2="175.2994"/><rect class="al" x="63.1553" y="159.7205" width="22.755" height="5"/><polygon class="al" points="66.52 151.217 63.156 159.052 85.911 159.052 82.547 151.217 66.52 151.217"/><rect class="al" x="66.5903" y="142.2875" width="15.885" height="8.26"/><rect class="al" x="63.1553" y="191.9245" width="22.755" height="34.945"/><polygon class="al" points="71.178 122.728 66.59 141.618 82.475 141.618 77.887 122.728 71.178 122.728"/><g class="d"><circle class="ao" cx="74.533" cy="176.5324" r="48.466" transform="translate(-61.8825 41.9603) rotate(-22.5)"/></g><g class="d"><g class="ap"><g class="aq"><path class="e" d="M15.8549,243.3993s-11.3391,0-11.3391,11.339v14.637s0,11.339,11.3391,11.339H133.1s11.339,0,11.339-11.339v-14.637s0-11.339-11.339-11.339Z"/></g></g></g><text class="ar" transform="translate(24.6026 261.1983)"><tspan class="as">C</tspan><tspan class="at" x="6.2559" y="0">A</tspan><tspan class="as" x="12.8955" y="0">P</tspan><tspan class="au" x="19.0874" y="0">I</tspan><tspan class="av" x="22.2715" y="0">T</tspan><tspan class="at" x="27.6152" y="0">A</tspan><tspan class="aw" x="34.2549" y="0">L</tspan><tspan class="ax" x="39.7432" y="0"> </tspan><tspan x="42.271" y="0">C</tspan><tspan class="ay" x="48.4468" y="0">I</tspan><tspan class="az" x="51.6304" y="0">T</tspan><tspan class="aw" x="57.7739" y="0">Y </tspan><tspan x="66.7183" y="0">O</tspan><tspan class="ax" x="73.0542" y="0">F</tspan><tspan class="ba" x="78.606" y="0"> </tspan><tspan class="au" x="81.1499" y="0">T</tspan><tspan class="bb" x="86.9897" y="0">H</tspan><tspan x="93.7896" y="0">E </tspan></text><text class="ar" transform="translate(33.6607 275.1983)">U<tspan class="bc" x="6.3682" y="0">N</tspan><tspan class="ay" x="13.1675" y="0">IT</tspan><tspan class="bd" x="22.1914" y="0">E</tspan><tspan class="be" x="28.0791" y="0">D</tspan><tspan class="bf" x="34.6709" y="0"> </tspan><tspan class="bg" x="37.1992" y="0">K</tspan><tspan class="bh" x="43.9512" y="0">I</tspan><tspan x="46.9424" y="0">NG</tspan><tspan class="ax" x="60.0146" y="0">D</tspan><tspan x="66.5898" y="0">OM</tspan></text></g></svg>